<svg width="425" height="133" viewBox="0 0 425 133" fill="none" xmlns="http://www.w3.org/2000/svg">
<path d="M18.384 35.192C18.256 34.8507 20.24 34.68 24.336 34.68C28.4747 34.68 30.544 34.7867 30.544 35L35.152 56.76L38.608 35.32C38.736 34.936 40.848 34.744 44.944 34.744C49.0827 34.744 51.088 34.9147 50.96 35.256L41.936 66.552C41.6373 66.9787 39.0987 67.192 34.32 67.192C29.5413 67.192 26.9813 66.872 26.64 66.232L18.384 35.192ZM57.007 63.224C54.3617 60.28 53.039 56.2053 53.039 51C53.039 45.7947 54.3617 41.72 57.007 38.776C59.695 35.832 63.3003 34.36 67.823 34.36C72.3457 34.36 75.9297 35.832 78.575 38.776C81.2203 41.72 82.543 45.7947 82.543 51C82.543 56.2053 81.2203 60.28 78.575 63.224C75.9297 66.168 72.3457 67.64 67.823 67.64C63.3003 67.64 59.695 66.168 57.007 63.224ZM67.823 45.048C65.4337 45.048 64.239 47.0107 64.239 50.936C64.239 54.8613 65.4337 56.824 67.823 56.824C70.255 56.824 71.471 54.8613 71.471 50.936C71.471 47.0107 70.255 45.048 67.823 45.048ZM87.0675 22.712C87.0675 22.0293 89.0088 21.688 92.8915 21.688C96.5182 21.816 98.3315 22.0933 98.3315 22.52V47.096L104.668 35.384C104.966 34.744 106.78 34.424 110.108 34.424C113.436 34.424 115.569 34.6373 116.507 35.064L108.188 48.632L117.788 66.616C117.873 66.7867 117.062 66.9147 115.356 67C113.692 67.128 112.305 67.192 111.196 67.192C107.1 67.192 104.902 67 104.604 66.616L98.2675 52.408V66.552C98.2675 67.1067 96.3902 67.384 92.6355 67.384C88.9235 67.384 87.0675 67.128 87.0675 66.616V22.712ZM121.161 55.48C124.617 57.5707 127.348 58.616 129.354 58.616C130.634 58.616 131.274 58.168 131.274 57.272C131.274 56.632 130.164 55.8 127.946 54.776C122.612 52.6 119.946 49.0373 119.946 44.088C119.946 40.9307 121.098 38.52 123.402 36.856C125.706 35.192 128.458 34.36 131.658 34.36C134.9 34.36 137.631 34.7013 139.85 35.384C142.111 36.0667 143.242 36.9627 143.242 38.072C143.242 39.0107 142.772 40.248 141.834 41.784C140.938 43.32 140.319 44.152 139.978 44.28C138.143 43.256 136.159 42.744 134.026 42.744C132.874 42.744 132.298 43.1493 132.298 43.96C132.298 44.472 132.511 44.92 132.938 45.304C133.407 45.6453 134.239 46.0933 135.434 46.648C136.628 47.16 137.61 47.6293 138.378 48.056C139.188 48.4827 140.084 49.08 141.066 49.848C143.114 51.4693 144.138 53.5813 144.138 56.184C144.138 59.5973 143.007 62.3707 140.746 64.504C138.484 66.5947 135.071 67.64 130.506 67.64C127.476 67.64 124.724 67.128 122.25 66.104C119.775 65.08 118.538 63.672 118.538 61.88C118.538 60.6853 118.815 59.4267 119.37 58.104C119.967 56.7813 120.564 55.9067 121.161 55.48ZM159.126 67.192C159.126 67.4907 157.099 67.64 153.046 67.64C149.035 67.64 147.03 67.512 147.03 67.256V55.736C147.03 55.352 149.035 55.16 153.046 55.16C157.099 55.16 159.126 55.2667 159.126 55.48V67.192Z" fill="black"/>
<path d="M182.304 49.18C182.304 48.964 182.964 48.856 184.284 48.856C187.26 48.856 188.724 48.952 188.676 49.144L185.148 66.64C185.076 67.024 183.744 67.216 181.152 67.216C178.56 67.216 177.228 67.024 177.156 66.64L175.68 58.576L173.844 66.64C173.772 67 172.392 67.18 169.704 67.18C167.04 67.18 165.672 66.964 165.6 66.532L162.396 49C162.324 48.856 163.356 48.784 165.492 48.784C167.604 48.808 168.66 48.856 168.66 48.928L170.316 61.096L173.304 49.072C173.352 48.928 174.144 48.856 175.68 48.856C177.216 48.856 178.008 48.928 178.056 49.072L181.008 60.952L182.304 49.18ZM204.298 66.028C202.786 66.916 200.842 67.36 198.466 67.36C196.09 67.36 194.086 66.556 192.454 64.948C190.822 63.316 190.006 61.072 190.006 58.216C190.006 55.336 190.786 53.02 192.346 51.268C193.93 49.516 195.922 48.64 198.322 48.64C200.722 48.64 202.57 49.252 203.866 50.476C205.186 51.7 205.846 53.188 205.846 54.94C205.846 58.828 203.614 60.772 199.15 60.772H196.666C196.666 61.492 196.858 61.996 197.242 62.284C197.65 62.548 198.238 62.68 199.006 62.68C200.686 62.68 202.282 62.296 203.794 61.528C203.818 61.504 203.926 61.672 204.118 62.032C204.694 63.064 204.982 63.94 204.982 64.66C204.982 65.356 204.754 65.812 204.298 66.028ZM199.798 55.624C199.798 54.616 199.306 54.112 198.322 54.112C197.866 54.112 197.47 54.256 197.134 54.544C196.822 54.808 196.666 55.204 196.666 55.732V56.848H198.61C199.402 56.848 199.798 56.44 199.798 55.624ZM208.378 41.908C208.378 41.62 209.41 41.476 211.474 41.476C213.562 41.476 214.606 41.632 214.606 41.944V48.928C215.638 48.736 216.37 48.64 216.802 48.64C221.842 48.64 224.362 51.532 224.362 57.316C224.362 60.532 223.582 63.016 222.022 64.768C220.486 66.496 218.29 67.36 215.434 67.36C212.602 67.36 210.25 66.724 208.378 65.452V41.908ZM215.794 54.256C215.386 54.256 214.99 54.388 214.606 54.652V61.528C214.942 61.672 215.29 61.744 215.65 61.744C216.034 61.744 216.418 61.6 216.802 61.312C217.474 60.832 217.81 59.716 217.81 57.964C217.81 55.492 217.138 54.256 215.794 54.256ZM247.294 66.028C245.782 66.916 243.838 67.36 241.462 67.36C239.086 67.36 237.082 66.556 235.45 64.948C233.818 63.316 233.002 61.072 233.002 58.216C233.002 55.336 233.782 53.02 235.342 51.268C236.926 49.516 238.918 48.64 241.318 48.64C243.718 48.64 245.566 49.252 246.862 50.476C248.182 51.7 248.842 53.188 248.842 54.94C248.842 58.828 246.61 60.772 242.146 60.772H239.662C239.662 61.492 239.854 61.996 240.238 62.284C240.646 62.548 241.234 62.68 242.002 62.68C243.682 62.68 245.278 62.296 246.79 61.528C246.814 61.504 246.922 61.672 247.114 62.032C247.69 63.064 247.978 63.94 247.978 64.66C247.978 65.356 247.75 65.812 247.294 66.028ZM242.794 55.624C242.794 54.616 242.302 54.112 241.318 54.112C240.862 54.112 240.466 54.256 240.13 54.544C239.818 54.808 239.662 55.204 239.662 55.732V56.848H241.606C242.398 56.848 242.794 56.44 242.794 55.624ZM257.746 66.712C257.746 66.928 256.522 67.036 254.074 67.036C252.154 67.012 251.194 66.916 251.194 66.748V42.232C251.194 41.872 252.358 41.692 254.686 41.692C256.726 41.764 257.746 41.884 257.746 42.052V66.712ZM274.611 66.028C273.099 66.916 271.155 67.36 268.779 67.36C266.403 67.36 264.399 66.556 262.767 64.948C261.135 63.316 260.319 61.072 260.319 58.216C260.319 55.336 261.099 53.02 262.659 51.268C264.243 49.516 266.235 48.64 268.635 48.64C271.035 48.64 272.883 49.252 274.179 50.476C275.499 51.7 276.159 53.188 276.159 54.94C276.159 58.828 273.927 60.772 269.463 60.772H266.979C266.979 61.492 267.171 61.996 267.555 62.284C267.963 62.548 268.551 62.68 269.319 62.68C270.999 62.68 272.595 62.296 274.107 61.528C274.131 61.504 274.239 61.672 274.431 62.032C275.007 63.064 275.295 63.94 275.295 64.66C275.295 65.356 275.067 65.812 274.611 66.028ZM270.111 55.624C270.111 54.616 269.619 54.112 268.635 54.112C268.179 54.112 267.783 54.256 267.447 54.544C267.135 54.808 266.979 55.204 266.979 55.732V56.848H268.923C269.715 56.848 270.111 56.44 270.111 55.624ZM294.819 66.82C294.819 66.988 293.787 67.072 291.723 67.072C289.683 67.072 288.663 66.964 288.663 66.748V56.272C288.663 55.072 288.267 54.472 287.475 54.472C287.067 54.472 286.527 54.736 285.855 55.264V66.784C285.855 67.024 284.823 67.144 282.759 67.144C280.719 67.144 279.699 67.012 279.699 66.748V54.976H278.799C278.007 54.976 277.611 54.148 277.611 52.492C277.611 51.748 277.755 50.992 278.043 50.224C278.427 49.168 279.051 48.64 279.915 48.64C280.779 48.64 281.607 48.868 282.399 49.324C283.215 49.78 283.707 50.212 283.875 50.62C285.363 49.3 287.007 48.64 288.807 48.64C290.631 48.64 292.095 49.204 293.199 50.332C294.495 49.204 296.055 48.64 297.879 48.64C301.839 48.64 303.819 51.052 303.819 55.876V66.82C303.819 66.988 302.787 67.072 300.723 67.072C298.683 67.072 297.663 66.964 297.663 66.748V56.272C297.663 55.072 297.267 54.472 296.475 54.472C296.043 54.472 295.491 54.736 294.819 55.264V66.82ZM320.49 66.028C318.978 66.916 317.034 67.36 314.658 67.36C312.282 67.36 310.278 66.556 308.646 64.948C307.014 63.316 306.198 61.072 306.198 58.216C306.198 55.336 306.978 53.02 308.538 51.268C310.122 49.516 312.114 48.64 314.514 48.64C316.914 48.64 318.762 49.252 320.058 50.476C321.378 51.7 322.038 53.188 322.038 54.94C322.038 58.828 319.806 60.772 315.342 60.772H312.858C312.858 61.492 313.05 61.996 313.434 62.284C313.842 62.548 314.43 62.68 315.198 62.68C316.878 62.68 318.474 62.296 319.986 61.528C320.01 61.504 320.118 61.672 320.31 62.032C320.886 63.064 321.174 63.94 321.174 64.66C321.174 65.356 320.946 65.812 320.49 66.028ZM315.99 55.624C315.99 54.616 315.498 54.112 314.514 54.112C314.058 54.112 313.662 54.256 313.326 54.544C313.014 54.808 312.858 55.204 312.858 55.732V56.848H314.802C315.594 56.848 315.99 56.44 315.99 55.624ZM331.914 66.784C331.914 66.952 331.05 67.036 329.322 67.036C326.922 66.964 325.722 66.832 325.722 66.64V54.976H324.786C324.162 54.976 323.754 54.448 323.562 53.392C323.514 53.08 323.49 52.768 323.49 52.456C323.49 51.712 323.634 50.968 323.922 50.224C324.354 49.168 325.026 48.64 325.938 48.64C326.85 48.64 327.666 48.856 328.386 49.288C329.106 49.72 329.586 50.152 329.826 50.584C331.338 49.288 333.138 48.64 335.226 48.64C337.314 48.64 338.826 49.204 339.762 50.332C340.698 51.46 341.166 53.308 341.166 55.876V66.676C341.166 66.964 340.134 67.108 338.07 67.108C336.03 67.108 335.01 66.964 335.01 66.676V56.272C335.01 55.072 334.59 54.472 333.75 54.472C333.51 54.472 333.174 54.58 332.742 54.796C332.31 54.988 332.034 55.132 331.914 55.228V66.784ZM352.498 66.784C352.498 67.072 351.49 67.216 349.474 67.216C347.074 67.12 345.874 66.964 345.874 66.748V54.004H344.038C343.558 54.004 343.318 53.176 343.318 51.52C343.318 51.088 343.354 50.56 343.426 49.936C343.522 49.312 343.702 49 343.966 49H345.874V45.832C345.874 45.352 346.882 45.112 348.898 45.112C350.938 45.112 351.958 45.304 351.958 45.688V47.992L351.994 49H355.054C355.462 49 355.666 49.84 355.666 51.52C355.666 53.2 355.462 54.04 355.054 54.04H352.498V66.784ZM358.228 60.52C360.172 61.696 361.708 62.284 362.836 62.284C363.556 62.284 363.916 62.032 363.916 61.528C363.916 61.168 363.292 60.7 362.044 60.124C359.044 58.9 357.544 56.896 357.544 54.112C357.544 52.336 358.192 50.98 359.488 50.044C360.784 49.108 362.332 48.64 364.132 48.64C365.956 48.64 367.492 48.832 368.74 49.216C370.012 49.6 370.648 50.104 370.648 50.728C370.648 51.256 370.384 51.952 369.856 52.816C369.352 53.68 369.004 54.148 368.812 54.22C367.78 53.644 366.664 53.356 365.464 53.356C364.816 53.356 364.492 53.584 364.492 54.04C364.492 54.328 364.612 54.58 364.852 54.796C365.116 54.988 365.584 55.24 366.256 55.552C366.928 55.84 367.48 56.104 367.912 56.344C368.368 56.584 368.872 56.92 369.424 57.352C370.576 58.264 371.152 59.452 371.152 60.916C371.152 62.836 370.516 64.396 369.244 65.596C367.972 66.772 366.052 67.36 363.484 67.36C361.78 67.36 360.232 67.072 358.84 66.496C357.448 65.92 356.752 65.128 356.752 64.12C356.752 63.448 356.908 62.74 357.22 61.996C357.556 61.252 357.892 60.76 358.228 60.52Z" fill="#4B7CFA"/>
</svg>
